<svg width="16" height="16" viewBox="0 0 16 16" fill="none" xmlns="http://www.w3.org/2000/svg">
<rect x="0.55" y="0.55" width="14.9" height="14.9" rx="2.45" fill="white"/>
<rect x="0.55" y="0.55" width="14.9" height="14.9" rx="2.45" stroke="#737780" stroke-width="0.9"/>
<path d="M8.26932 9.29164L8.26939 9.29171C8.3483 9.36447 8.38848 9.45539 8.38856 9.56203M8.26932 9.29164L8.24056 9.80249M8.26932 9.29164C8.19084 9.21967 8.09756 9.18323 7.99134 9.18312M8.26932 9.29164L7.73486 9.3222M8.38856 9.56203C8.38931 9.61275 8.37884 9.663 8.35791 9.70955C8.33707 9.75589 8.30635 9.79748 8.26783 9.83177M8.38856 9.56203C8.38856 9.56193 8.38856 9.56182 8.38856 9.56172L8.34856 9.56235H8.38856C8.38856 9.56224 8.38856 9.56213 8.38856 9.56203ZM8.26783 9.83177C8.26758 9.832 8.26734 9.83222 8.26709 9.83244L8.24056 9.80249M8.26783 9.83177C8.26807 9.83154 8.26831 9.8313 8.26855 9.83107L8.24056 9.80249M8.26783 9.83177C8.2318 9.86688 8.18874 9.89462 8.14129 9.91344C8.09371 9.93232 8.04263 9.94187 7.99114 9.94157C7.93839 9.94262 7.88593 9.93332 7.83707 9.91421C7.78834 9.89514 7.74417 9.86669 7.70742 9.83053M8.24056 9.80249C8.20827 9.83413 8.16947 9.85923 8.12654 9.87626C8.08361 9.89329 8.03744 9.90191 7.99086 9.90157C7.94314 9.90258 7.89572 9.8942 7.85164 9.87696C7.80756 9.85971 7.76779 9.83398 7.73486 9.80142M7.70742 9.83053C7.70766 9.83075 7.7079 9.83096 7.70814 9.83118L7.73486 9.80142M7.70742 9.83053C7.70719 9.83031 7.70696 9.83008 7.70673 9.82985L7.73486 9.80142M7.70742 9.83053C7.6694 9.79621 7.63912 9.75474 7.61861 9.70861C7.59802 9.6623 7.58777 9.61238 7.58858 9.562C7.58867 9.4571 7.62889 9.36684 7.70719 9.29331M7.73486 9.80142C7.70059 9.77064 7.67346 9.73351 7.65516 9.69237C7.63687 9.65122 7.62782 9.60695 7.62858 9.56235C7.62858 9.46866 7.66401 9.38861 7.73486 9.3222M7.70719 9.29331C7.70708 9.29342 7.70697 9.29353 7.70686 9.29363L7.73486 9.3222M7.70719 9.29331C7.7073 9.29321 7.7074 9.29311 7.70751 9.29301L7.73486 9.3222M7.70719 9.29331C7.74411 9.25721 7.78846 9.22886 7.83734 9.20994C7.88622 9.19102 7.93865 9.18191 7.99134 9.18312M7.99134 9.18312C7.99118 9.18312 7.99102 9.18312 7.99086 9.18312V9.22312L7.99183 9.18314C7.99167 9.18313 7.9915 9.18313 7.99134 9.18312ZM4.57153 11.04C4.46588 11.04 4.36192 11.0141 4.26985 10.9648C4.17778 10.9154 4.10063 10.8441 4.04621 10.7577C3.99179 10.6713 3.96204 10.5729 3.9601 10.4721C3.95816 10.3713 3.98411 10.2718 4.0352 10.1836L4.57153 11.04ZM4.57153 11.04H11.4285C11.5341 11.04 11.6381 11.0141 11.7301 10.9648C11.8222 10.9154 11.8994 10.8441 11.9538 10.7577C12.0082 10.6713 12.038 10.5729 12.0399 10.4721C12.0418 10.3713 12.0159 10.2718 11.9648 10.1836L4.57153 11.04ZM8.53632 4.26068C8.48346 4.16931 8.40563 4.09336 8.31127 4.04056C8.21693 3.98777 8.10941 3.96 8 3.96C7.89059 3.96 7.78307 3.98777 7.68873 4.04056C7.59437 4.09335 7.51654 4.16931 7.46368 4.26068C7.46368 4.26068 7.46368 4.26068 7.46368 4.26068L4.0352 10.1836L8.5017 4.28071M8.53632 4.26068L8.5017 4.28071M8.53632 4.26068L8.53632 4.26068L8.5017 4.28071M8.53632 4.26068L11.9648 10.1836L11.9302 10.2036L8.5017 4.28071M7.72578 8.88006L7.72775 8.91793L7.76567 8.91798L8.22852 8.91852L8.26645 8.91856L8.26851 8.88069L8.41136 6.25306L8.41365 6.21089H8.37142H7.62858H7.58644L7.58864 6.25298L7.72578 8.88006ZM8 4.61847L11.3591 10.4216H4.64089L8 4.61847Z" fill="#737780" stroke="#737780" stroke-width="0.08"/>
</svg>
